<?xml version="1.0" encoding="UTF-8" standalone="no"?>
<svg
   xmlns:dc="http://purl.org/dc/elements/1.1/"
   xmlns:cc="http://creativecommons.org/ns#"
   xmlns:rdf="http://www.w3.org/1999/02/22-rdf-syntax-ns#"
   xmlns:svg="http://www.w3.org/2000/svg"
   xmlns="http://www.w3.org/2000/svg"
   xmlns:sodipodi="http://sodipodi.sourceforge.net/DTD/sodipodi-0.dtd"
   xmlns:inkscape="http://www.inkscape.org/namespaces/inkscape"
   version="1.1"
   class="clearos-svg clearfoundation app-vendor-fornstad app-paid app-category-server app-sub-category-applications"
   viewBox="0 0 405.91525 405.91525"
   preserveAspectRatio="xMinYMin"
   id="svg4"
   sodipodi:docname="camera1.svg"
   inkscape:version="0.92.2 (unknown)"
   width="405.91525"
   height="405.91525">
  <metadata
     id="metadata10">
    <rdf:RDF>
      <cc:Work
         rdf:about="">
        <dc:format>image/svg+xml</dc:format>
        <dc:type
           rdf:resource="http://purl.org/dc/dcmitype/StillImage" />
        <dc:title></dc:title>
      </cc:Work>
    </rdf:RDF>
  </metadata>
  <defs
     id="defs8" />
  <sodipodi:namedview
     pagecolor="#ffffff"
     bordercolor="#666666"
     borderopacity="1"
     objecttolerance="10"
     gridtolerance="10"
     guidetolerance="10"
     inkscape:pageopacity="0"
     inkscape:pageshadow="2"
     inkscape:window-width="1251"
     inkscape:window-height="1380"
     id="namedview6"
     showgrid="false"
     inkscape:zoom="0.834386"
     inkscape:cx="19.181616"
     inkscape:cy="193.34736"
     inkscape:window-x="199"
     inkscape:window-y="27"
     inkscape:window-maximized="0"
     inkscape:current-layer="svg4"
     fit-margin-top="5"
     fit-margin-left="5"
     fit-margin-right="5"
     fit-margin-bottom="5" />
  <circle
     style="opacity:1;vector-effect:none;fill:#f26b23;fill-opacity:1;stroke:none;stroke-width:0.97904348px;stroke-linecap:butt;stroke-linejoin:miter;stroke-miterlimit:4;stroke-dasharray:none;stroke-dashoffset:0;stroke-opacity:1;marker-start:none"
     id="path823"
     cx="202.95763"
     cy="202.95763"
     r="197.46811" />
  <path
     id="path879"
     style="fill:#ffffff;stroke-width:1.33333337"
     d="m 290.76346,118.70456 0.39988,-7.66667 h 21.93346 21.93346 V 98.371219 85.704561 h -57.33333 -57.33332 v 12.666658 12.666671 h 22.66665 22.66667 v 8.05003 8.05004 l 24.66667,0.13212 z m 10.62832,44.66666 -0.36152,-26.33333 -23,-0.36482 -23,-0.36482 v 13.21343 13.21342 l 5.97739,0.89638 c 10.00063,1.49968 23.38283,9.11406 31.45261,17.89633 3.98016,4.33157 7.69935,7.94335 8.26486,8.02616 0.5655,0.0828 0.8655,-11.69941 0.66666,-26.18275 z M 240.3636,275.70745 c 9.70341,-1.29877 65.88058,-16.75037 67.07194,-18.44821 1.55043,-2.20959 0.0267,-22.73424 -2.39213,-32.22135 -3.72099,-14.59463 -11.7224,-28.79864 -21.23629,-37.69841 -11.24687,-10.5209 -19.93152,-13.98542 -35.44352,-14.1393 -10.56051,-0.1048 -16.21806,1.19888 -82.96719,19.11766 -39.39864,10.57654 -71.48509,19.37886 -71.30324,19.56072 0.18185,0.18185 4.51709,1.21309 9.63387,2.29164 20.23413,4.26509 44.43083,17.28034 75.95119,40.8537 19.92568,14.90195 28.99022,19.74028 40.01871,21.3606 6.59103,0.96836 8.95096,0.89106 20.66666,-0.67705 z m -70.9375,-1.29871 c 2.93009,-8.97385 0.88343,-13.7169 -8.84827,-20.50537 -4.59773,-3.20721 -8.77682,-5.41252 -9.28686,-4.90069 -2.17088,2.17849 -0.75315,17.42769 2.13493,22.9637 3.34829,6.41816 6.20423,8.52339 10.93771,8.06264 2.5925,-0.25236 3.71764,-1.50145 5.06249,-5.62028 z m -63.21671,-0.37085 c -2.37002,-10.07144 -2.3325,-28.57109 0.0767,-37.82067 1.05737,-4.0595 2.10737,-8.2315 2.33334,-9.2711 0.66934,-3.07943 -13.23976,-4.70915 -22.50145,-2.63648 -19.62206,4.39122 -20.37179,21.54176 -1.75895,40.23717 6.46503,6.49372 20.34887,16.88719 22.82953,17.09023 0.45373,0.0372 0.0131,-3.38248 -0.97917,-7.59915 z m 161.48754,23.19188 c 3.66667,-0.97707 8.51176,-2.73111 10.76687,-3.89787 7.37934,-3.81796 17.25056,-16.72102 14.72453,-19.24705 -0.41364,-0.41364 -4.21843,0.19421 -8.45507,1.3508 -4.23665,1.15659 -10.253,2.76336 -13.36966,3.57061 -3.11667,0.80727 -5.68091,2.19462 -5.69832,3.08302 -0.0173,0.8884 -1.45042,5.06528 -3.18448,9.28194 -1.73407,4.21667 -2.76983,7.65955 -2.3017,7.65084 0.46815,-0.009 3.85116,-0.81524 7.51783,-1.79229 z m -97.72055,17.46671 c 9.30491,-5.63328 14.26353,-15.51106 16.43384,-32.7368 0.72251,-5.73456 0.44712,-7.56956 -1.45072,-9.66667 -3.16948,-3.50223 -4.59589,-3.25456 -4.59589,0.798 0,5.22005 -4.92398,13.66671 -9.2802,15.9194 -8.56816,4.43077 -17.95162,0.99604 -24.92551,-9.12375 -7.09009,-10.2884 -8.67686,-24.74285 -3.91626,-35.67462 0.74205,-1.70399 -1.56412,-3.45266 -10.93914,-8.29467 l -11.87942,-6.13548 -1.59108,3.49204 c -4.02306,8.82965 -4.09971,28.65723 -0.16648,43.06365 4.23955,15.52834 17.12075,32.99415 28.48059,38.61723 7.56812,3.7462 17.39159,3.63971 23.83027,-0.25833 z m 38.52853,-1.5918 c 27.65548,-7.35066 29.74058,-8.12588 35.53151,-13.21039 4.43764,-3.89631 10.46783,-13.82687 9.17887,-15.11583 -0.36723,-0.36721 -3.73861,-0.009 -7.49199,0.79588 -14.77776,3.16927 -32.79269,1.4406 -47.02636,-4.51252 -1.95123,-0.81609 -2.33592,-0.2429 -2.34916,3.50008 -0.0339,9.57251 -4.84937,22.47022 -11.84845,31.73438 -2.38208,3.15299 -2.79811,4.33808 -1.32775,3.78221 1.17771,-0.44524 12.57771,-3.58345 25.33333,-6.97381 z"
     inkscape:connector-curvature="0" />
</svg>
