<?xml version="1.0" encoding="utf-8"?>
<!-- Generator: Adobe Illustrator 18.1.1, SVG Export Plug-In . SVG Version: 6.00 Build 0)  -->
<svg version="1.1" id="Слой_1" xmlns="http://www.w3.org/2000/svg" xmlns:xlink="http://www.w3.org/1999/xlink" x="0px" y="0px"
	 viewBox="0 0 29.4 31.5" enable-background="new 0 0 29.4 31.5" xml:space="preserve">
<g>
	<path fill-rule="evenodd" clip-rule="evenodd" fill="#FF3300" d="M27.43,9.44L15.2,16.51L5.74,5.15C2.25,7.82,0,12.04,0,16.79
		C0,24.93,6.57,31.5,14.71,31.5c8.12,0,14.69-6.57,14.69-14.71C29.4,14.13,28.68,11.61,27.43,9.44z"/>
	<path fill-rule="evenodd" clip-rule="evenodd" fill="#FF9900" d="M1.97,9.45l8.54,4.91l4.2,2.43V2.1C9.26,2.1,4.51,5.05,1.97,9.45
		L1.97,9.45z M14.71,16.79L14.71,16.79L14.71,16.79L14.71,16.79z"/>
	<path fill-rule="evenodd" clip-rule="evenodd" fill="#FFFFFF" d="M14.71,21.68c2.66,0,4.86-2.2,4.86-4.89
		c0-2.66-2.2-4.86-4.86-4.86c-2.69,0-4.89,2.2-4.89,4.86C9.83,19.48,12.03,21.68,14.71,21.68L14.71,21.68z"/>
	<path fill-rule="evenodd" clip-rule="evenodd" fill="#0099FF" d="M17.25,0c4.43,0.4,8.28,2.8,10.71,6.31L17.22,12.5L17.25,0z"/>
</g>
<g>
</g>
<g>
</g>
<g>
</g>
<g>
</g>
<g>
</g>
<g>
</g>
<g>
</g>
<g>
</g>
<g>
</g>
<g>
</g>
<g>
</g>
<g>
</g>
<g>
</g>
<g>
</g>
<g>
</g>
</svg>
