<?xml version="1.0" encoding="UTF-8" standalone="no"?>
<svg
   xmlns:dc="http://purl.org/dc/elements/1.1/"
   xmlns:cc="http://creativecommons.org/ns#"
   xmlns:rdf="http://www.w3.org/1999/02/22-rdf-syntax-ns#"
   xmlns:svg="http://www.w3.org/2000/svg"
   xmlns="http://www.w3.org/2000/svg"
   xmlns:sodipodi="http://sodipodi.sourceforge.net/DTD/sodipodi-0.dtd"
   xmlns:inkscape="http://www.inkscape.org/namespaces/inkscape"
   version="1.1"
   class="clearos-svg clearfoundation app-vendor-fornstad app-paid app-category-server app-sub-category-applications"
   viewBox="0 0 405.91525 405.91525"
   preserveAspectRatio="xMinYMin"
   id="svg4"
   sodipodi:docname="domoticz.svg"
   inkscape:version="0.92.2 (unknown)"
   width="405.91525"
   height="405.91525">
  <metadata
     id="metadata10">
    <rdf:RDF>
      <cc:Work
         rdf:about="">
        <dc:format>image/svg+xml</dc:format>
        <dc:type
           rdf:resource="http://purl.org/dc/dcmitype/StillImage" />
        <dc:title></dc:title>
      </cc:Work>
    </rdf:RDF>
  </metadata>
  <defs
     id="defs8" />
  <sodipodi:namedview
     pagecolor="#ffffff"
     bordercolor="#666666"
     borderopacity="1"
     objecttolerance="10"
     gridtolerance="10"
     guidetolerance="10"
     inkscape:pageopacity="0"
     inkscape:pageshadow="2"
     inkscape:window-width="1251"
     inkscape:window-height="1380"
     id="namedview6"
     showgrid="false"
     inkscape:zoom="0.2085965"
     inkscape:cx="1377.327"
     inkscape:cy="264.15345"
     inkscape:window-x="661"
     inkscape:window-y="27"
     inkscape:window-maximized="0"
     inkscape:current-layer="svg4"
     fit-margin-top="5"
     fit-margin-left="5"
     fit-margin-right="5"
     fit-margin-bottom="5" />
  <circle
     style="opacity:1;vector-effect:none;fill:#0077bf;fill-opacity:1;stroke:#d9d9d9;stroke-width:0.97904348px;stroke-linecap:butt;stroke-linejoin:miter;stroke-miterlimit:4;stroke-dasharray:none;stroke-dashoffset:0;stroke-opacity:1;marker-start:none"
     id="path823"
     cx="202.95763"
     cy="202.95763"
     r="197.46811" />
  <path
     d="m 113.91763,121.95763 c -7.32,19.9 6.41,40.9 28.04,41 h 72 c 26.49164,0 46.27984,17.47075 46.14,42 -0.34,24.71 -20.24764,41 -44.14,41 h -74 c -26.81,0.04 -39.56999,30.47 -22.67,49.96 6.9,7.97 16.62,10.02 26.67,10.04 h 74 c 13.86,-0.17 29.39,-3.85 42,-9.58 59.68,-27.11 77.11,-107.23 35.68,-157.42 -5.55567,-5.93223 -32.91515,-36.87999 -74.68,-36.87999 h -38 -48 c -10.9,3.03999 -19.02,8.97999 -23.04,19.87999 z"
     id="path819"
     inkscape:connector-curvature="0"
     sodipodi:nodetypes="ccccccccccccccc"
     style="fill:#ffffff" />
  <path
     d="m 189.95763,190.95763 c 0,0 0,25 0,25 0.05,2.73 0.03,5.47 2.31,7.4 2.25,1.89 5.92,1.59 8.69,1.6 0,0 18,0 18,0 6.14,-0.01 9.96,-0.23 14.96,-4.39 8.98,-7.47 9.66,-23 1.71,-31.43 -7.63,-8.09 -17.64,-7.18 -27.67,-6.97 -4.33,-0.21 -8.7,-0.44 -12.98,0 -4.75,2.24 -4.92,3.83 -5.02,8.79 z"
     id="path2"
     style="fill:#ffffff"
     inkscape:connector-curvature="0" />
</svg>
