<?xml version="1.0" encoding="UTF-8" standalone="no"?>
<!-- Created with Inkscape (http://www.inkscape.org/) -->

<svg
   xmlns:dc="http://purl.org/dc/elements/1.1/"
   xmlns:cc="http://creativecommons.org/ns#"
   xmlns:rdf="http://www.w3.org/1999/02/22-rdf-syntax-ns#"
   xmlns:svg="http://www.w3.org/2000/svg"
   xmlns="http://www.w3.org/2000/svg"
   xmlns:sodipodi="http://sodipodi.sourceforge.net/DTD/sodipodi-0.dtd"
   xmlns:inkscape="http://www.inkscape.org/namespaces/inkscape"
   version="1.1"
   id="svg869"
   width="108.98894"
   height="65.932076"
   viewBox="0 0 108.98894 65.932075"
   sodipodi:docname="glances.svg"
   inkscape:version="0.92.2 (unknown)">
  <metadata
     id="metadata875">
    <rdf:RDF>
      <cc:Work
         rdf:about="">
        <dc:format>image/svg+xml</dc:format>
        <dc:type
           rdf:resource="http://purl.org/dc/dcmitype/StillImage" />
        <dc:title></dc:title>
      </cc:Work>
    </rdf:RDF>
  </metadata>
  <defs
     id="defs873" />
  <sodipodi:namedview
     pagecolor="#ffffff"
     bordercolor="#666666"
     borderopacity="1"
     objecttolerance="10"
     gridtolerance="10"
     guidetolerance="10"
     inkscape:pageopacity="0"
     inkscape:pageshadow="2"
     inkscape:window-width="2505"
     inkscape:window-height="1413"
     id="namedview871"
     showgrid="false"
     fit-margin-top="0"
     fit-margin-left="0"
     fit-margin-right="0"
     fit-margin-bottom="0"
     inkscape:zoom="6.1675077"
     inkscape:cx="-2.743009"
     inkscape:cy="16.48363"
     inkscape:window-x="55"
     inkscape:window-y="27"
     inkscape:window-maximized="1"
     inkscape:current-layer="svg869" />
  <path
     style="fill:#4d4d4d;stroke-width:0.16000001"
     d="m 50.633988,65.932076 c -4.50446,-0.355452 -9.02612,-0.570017 -13.51228,-1.144563 6.2597,-0.360812 12.55554,-0.07084 18.75979,-1.167872 6.88251,-1.143537 13.91046,-1.979152 20.26563,-5.074672 5.09929,-2.063872 10.3814,-4.542924 14.05294,-8.75552 5.52311,-7.163095 8.07811,-16.165932 9.42016,-24.973522 0.307061,-4.709172 -0.74827,-10.754436 -5.72928,-12.652556 C 80.767528,7.4059305 65.297908,5.3112445 52.731198,8.2343625 43.804288,10.044137 35.491308,14.231339 27.668898,18.754278 18.081098,22.946995 -2.2570819,45.850631 0.20502811,41.179543 5.8477181,31.260939 13.056378,21.983772 22.641698,15.611054 35.456458,6.4140705 50.480148,2.5913081 64.775468,0.34841581 c 10.4173,-0.6845878 21.05298,-0.5832456 31.14624,2.37406789 4.390052,1.2898888 9.599222,1.9865908 12.641992,5.7630498 1.83165,11.1235725 -2.52204,22.1263955 -7.92312,31.6332305 -3.686032,6.474758 -9.380562,11.575854 -15.361582,15.924402 -10.38001,6.288147 -22.52291,9.667808 -34.64501,9.88891 z"
     id="path885"
     inkscape:connector-curvature="0"
     sodipodi:nodetypes="ccccccccccccccccc" />
  <path
     id="path879"
     style="fill:#57cb6a;fill-opacity:1;stroke-width:0.16000001"
     d="m 55.700748,49.258492 c 3.25999,-0.566264 5.59324,-2.354563 7.01376,-5.375651 0.80619,-1.714571 1.16751,-3.245638 1.46418,-6.204298 0.24437,-2.43719 0.24442,-2.81826 6.4e-4,-5.28 -0.46889,-4.734508 -1.49268,-7.301769 -3.75881,-9.42564 -2.29626,-2.152102 -6.84976,-2.987724 -10.57827,-1.941244 -1.55738,0.437108 -2.5687,0.994988 -3.70386,2.043179 -0.80085,0.739493 -2.21481,2.669203 -2.21765,3.026553 -4.8e-4,0.06816 -0.10617,0.325572 -0.23472,0.572031 -0.36278,0.695512 -0.56775,1.551891 -0.37144,1.551891 0.37118,0 3.82824,-1.346518 5.32715,-2.074909 0.88,-0.427637 2.1986,-1.179725 2.93024,-1.671305 l 1.33022,-0.893786 h 1.98975 1.98976 v 11.36 11.36 h -2.79999 -2.8 v -8.8 c 0,-4.84 -0.0269,-8.8 -0.0599,-8.8 -0.0329,0 -0.37492,0.174766 -0.76,0.38837 -1.31679,0.730411 -3.92991,1.6786 -7.05061,2.558352 l -0.91045,0.256665 -0.11269,0.751458 c -0.062,0.413302 -0.069,1.978541 -0.0155,3.478307 0.17805,4.99843 1.15351,8.067542 3.30298,10.392214 2.24481,2.427788 5.94939,3.435786 10.02521,2.727813 z m -5.76164,3.767557 c -4.58512,-0.576646 -8.41546,-2.376714 -10.87071,-5.108686 -1.7805,-1.981178 -3.10788,-4.875437 -3.7479,-8.17205 -0.38738,-1.99528 -0.38109,-7.394152 0.011,-9.409438 1.42211,-7.31032 5.49495,-11.454197 12.79286,-13.015975 2.26975,-0.485733 7.55826,-0.524872 9.95739,-0.07369 3.86015,0.72594 6.7692,2.16255 8.99341,4.441323 1.21692,1.246769 1.76382,1.998558 2.49682,3.432232 1.62293,3.174261 2.26735,7.008467 2.00098,11.905547 -0.12385,2.277066 -0.27849,3.137432 -0.94899,5.28 -0.80544,2.573776 -1.78465,4.246597 -3.54881,6.062606 -2.12551,2.187968 -4.92467,3.608479 -8.59341,4.360957 -1.73632,0.356127 -6.70066,0.528823 -8.5426,0.297173 z"
     inkscape:connector-curvature="0" />
</svg>
