<?xml version="1.0" encoding="UTF-8" standalone="no"?>
<!-- Created with Inkscape (http://www.inkscape.org/) -->

<svg
   xmlns:dc="http://purl.org/dc/elements/1.1/"
   xmlns:cc="http://creativecommons.org/ns#"
   xmlns:rdf="http://www.w3.org/1999/02/22-rdf-syntax-ns#"
   xmlns:svg="http://www.w3.org/2000/svg"
   xmlns="http://www.w3.org/2000/svg"
   xmlns:sodipodi="http://sodipodi.sourceforge.net/DTD/sodipodi-0.dtd"
   xmlns:inkscape="http://www.inkscape.org/namespaces/inkscape"
   width="412.83621"
   height="412.83621"
   id="svg2"
   version="1.1"
   inkscape:version="0.92.2 (unknown)"
   sodipodi:docname="jackett.svg">
  <defs
     id="defs4" />
  <sodipodi:namedview
     id="base"
     pagecolor="#ffffff"
     bordercolor="#666666"
     borderopacity="1.0"
     inkscape:pageopacity="0.0"
     inkscape:pageshadow="2"
     inkscape:zoom="1.5951335"
     inkscape:cx="-204.00751"
     inkscape:cy="220.05068"
     inkscape:document-units="px"
     inkscape:current-layer="layer1"
     showgrid="false"
     fit-margin-left="5"
     fit-margin-bottom="5"
     fit-margin-top="5"
     fit-margin-right="5"
     inkscape:window-width="2505"
     inkscape:window-height="1413"
     inkscape:window-x="55"
     inkscape:window-y="27"
     inkscape:window-maximized="1"
     inkscape:lockguides="true" />
  <metadata
     id="metadata7">
    <rdf:RDF>
      <cc:Work
         rdf:about="">
        <dc:format>image/svg+xml</dc:format>
        <dc:type
           rdf:resource="http://purl.org/dc/dcmitype/StillImage" />
        <dc:title></dc:title>
      </cc:Work>
    </rdf:RDF>
  </metadata>
  <g
     inkscape:label="Layer 1"
     inkscape:groupmode="layer"
     id="layer1"
     transform="translate(-530.62871,-207.43131)">
    <g
       id="g148"
       transform="translate(534.08919,210.89179)"
       style="fill:none;fill-opacity:1;stroke:#000000;stroke-width:7.9000001;stroke-miterlimit:4;stroke-dasharray:none;stroke-opacity:1">
      <circle
         r="197.46811"
         cy="202.95763"
         cx="202.95763"
         id="path823"
         style="opacity:1;vector-effect:none;fill:none;fill-opacity:1;stroke:#000000;stroke-width:7.9000001;stroke-linecap:butt;stroke-linejoin:miter;stroke-miterlimit:4;stroke-dasharray:none;stroke-dashoffset:0;stroke-opacity:1;marker-start:none" />
    </g>
    <path
       style="fill:#000000;stroke-width:0.97348112"
       d="m 601.71118,540.90027 c 0.31578,-1.20469 1.02939,-10.73264 1.5858,-21.17321 0.5564,-10.44059 1.42761,-22.70645 1.93603,-27.25747 0.50841,-4.55103 1.61141,-19.4453 2.45111,-33.09837 0.83972,-13.65307 2.16099,-32.70895 2.93617,-42.34642 0.77517,-9.63746 2.07819,-28.25529 2.89557,-41.37294 0.81741,-13.11767 1.9408,-28.88807 2.49642,-35.04532 0.55564,-6.15728 1.40891,-17.72335 1.89616,-25.70239 0.48725,-7.97905 1.23524,-14.82042 1.66222,-15.20306 1.68123,-1.50672 17.79657,-9.52882 26.08681,-12.98584 4.81873,-2.00942 9.63746,-4.02756 10.70829,-4.4848 4.17359,-1.78206 17.94032,-6.05647 26.284,-8.16088 l 8.76131,-2.20972 0.48675,-10.06869 0.48674,-10.06869 3.89392,-1.40747 c 8.24481,-2.98012 30.35293,-6.43765 40.88623,-6.39429 10.25185,0.0422 31.32175,3.27769 41.37294,6.35319 l 4.38067,1.34043 0.28142,9.68354 c 0.15479,5.32594 0.63592,10.03801 1.06917,10.47127 0.43326,0.43326 4.03018,1.59321 7.99316,2.57769 16.71178,4.15149 38.03715,12.45859 56.36622,21.95694 l 6.32763,3.27906 0.61075,8.09997 c 0.33592,4.45497 1.10955,15.32806 1.71917,24.1624 0.60964,8.83434 1.52953,19.34794 2.04421,23.36354 0.51469,4.01562 1.40689,15.18631 1.98267,24.82378 0.5758,9.63746 1.68213,25.18882 2.45849,34.55857 0.77639,9.36976 1.8341,23.82595 2.3505,32.12488 1.03338,16.60792 2.46692,34.90757 3.9655,50.62102 0.86133,9.03156 2.84617,39.50202 2.8694,44.05001 0.007,1.56963 -1.62813,1.7036 -20.80575,1.7036 h -20.81447 l -0.5328,-18.73952 c -1.00356,-35.2968 -2.90064,-62.5674 -5.70539,-82.01578 -0.54051,-3.7479 -1.33942,-9.88083 -1.77534,-13.62873 -1.22416,-10.52475 -3.79491,-23.03863 -5.0414,-24.54057 -0.68043,-0.81984 -2.50341,-1.23955 -4.61517,-1.06253 l -3.49051,0.29259 -0.25855,26.89768 -0.25857,26.89768 -8.9895,2.08636 c -4.94424,1.1475 -11.17985,2.56924 -13.85692,3.15944 -2.67706,0.59018 -5.43603,1.23126 -6.13103,1.42463 -0.90513,0.25184 -1.18132,2.08129 -0.97348,6.44844 l 0.29015,6.09686 2.92044,-0.25362 c 1.60624,-0.1395 5.98691,-0.8764 9.73481,-1.63756 13.97417,-2.83805 16.03023,-3.17068 16.52704,-2.67386 0.7911,0.7911 0.5692,32.65584 -0.23614,33.90808 -1.27472,1.98212 -18.94935,9.80216 -28.94615,12.80707 -12.46299,3.74621 -18.63335,5.01147 -27.98759,5.739 l -7.54447,0.58677 v -130.10402 -130.104 l 4.62403,-0.0144 c 5.35232,-0.0166 15.884,-2.32216 18.73171,-4.10059 2.44953,-1.52975 2.52827,-4.79335 0.15145,-6.27769 -7.67067,-4.79042 -40.11285,-6.50789 -54.17186,-2.86786 -9.57895,2.48012 -12.28372,5.25165 -8.48239,8.69181 2.32097,2.10043 12.97631,4.53647 19.92081,4.55433 l 5.5975,0.0144 v 129.95972 129.95973 l -3.65054,-0.0109 c -8.79037,-0.0263 -34.48683,-6.06478 -43.71042,-10.27173 -1.68716,-0.76953 -3.35017,-1.39913 -3.69557,-1.39913 -0.3454,0 -3.89323,-1.52874 -7.8841,-3.3972 l -7.25608,-3.39718 v -17.15809 -17.15808 l 5.27999,0.6597 c 2.90398,0.36281 9.32892,1.48922 14.2776,2.50311 4.94871,1.01388 9.36274,1.61777 9.80897,1.34197 1.34517,-0.83135 0.97907,-12.08341 -0.40551,-12.46302 -0.66926,-0.18349 -3.40717,-0.80905 -6.08425,-1.39014 -2.67707,-0.58109 -7.93388,-1.75342 -11.68178,-2.60519 -3.7479,-0.85177 -7.79309,-1.7523 -8.98933,-2.00118 l -2.17495,-0.4525 -0.25875,-26.99943 -0.25874,-26.9994 -3.2274,-0.30979 c -1.77508,-0.17039 -3.79705,0.16297 -4.49328,0.74078 -1.34156,1.1134 -3.00784,8.11163 -4.41722,18.55188 -0.46982,3.4802 -1.7354,12.89864 -2.81238,20.92985 -2.51814,18.778 -4.816,50.66552 -5.62957,78.12186 l -0.64179,21.65996 h -20.89749 -20.89747 z"
       id="path901"
       inkscape:connector-curvature="0" />
  </g>
</svg>
