<?xml version="1.0" encoding="UTF-8" standalone="no"?>
<!-- Created with Inkscape (http://www.inkscape.org/) -->

<svg
   xmlns:dc="http://purl.org/dc/elements/1.1/"
   xmlns:cc="http://creativecommons.org/ns#"
   xmlns:rdf="http://www.w3.org/1999/02/22-rdf-syntax-ns#"
   xmlns:svg="http://www.w3.org/2000/svg"
   xmlns="http://www.w3.org/2000/svg"
   xmlns:sodipodi="http://sodipodi.sourceforge.net/DTD/sodipodi-0.dtd"
   xmlns:inkscape="http://www.inkscape.org/namespaces/inkscape"
   height="480"
   width="480"
   version="1.1"
   viewBox="0 0 480.00002 479.99999"
   id="svg14"
   sodipodi:docname="node-red-icon.svg"
   inkscape:version="0.92.2 (unknown)">
  <defs
     id="defs18" />
  <sodipodi:namedview
     pagecolor="#ffffff"
     bordercolor="#666666"
     borderopacity="1"
     objecttolerance="10"
     gridtolerance="10"
     guidetolerance="10"
     inkscape:pageopacity="0"
     inkscape:pageshadow="2"
     inkscape:window-width="2505"
     inkscape:window-height="1413"
     id="namedview16"
     showgrid="false"
     inkscape:zoom="2.7812867"
     inkscape:cx="278.1204"
     inkscape:cy="249.82888"
     inkscape:window-x="55"
     inkscape:window-y="27"
     inkscape:window-maximized="1"
     inkscape:current-layer="svg14" />
  <title
     id="title2">Node-RED Icon</title>
  <metadata
     id="metadata4">
    <rdf:RDF>
      <cc:Work
         rdf:about="">
        <dc:format>image/svg+xml</dc:format>
        <dc:type
           rdf:resource="http://purl.org/dc/dcmitype/StillImage" />
        <dc:title>Node-RED Icon</dc:title>
        <cc:license
           rdf:resource="http://creativecommons.org/licenses/by/3.0/" />
        <dc:creator>
          <cc:Agent>
            <dc:title>Nick O'Leary</dc:title>
          </cc:Agent>
        </dc:creator>
      </cc:Work>
      <cc:License
         rdf:about="http://creativecommons.org/licenses/by/3.0/">
        <cc:permits
           rdf:resource="http://creativecommons.org/ns#Reproduction" />
        <cc:permits
           rdf:resource="http://creativecommons.org/ns#Distribution" />
        <cc:requires
           rdf:resource="http://creativecommons.org/ns#Notice" />
        <cc:requires
           rdf:resource="http://creativecommons.org/ns#Attribution" />
        <cc:permits
           rdf:resource="http://creativecommons.org/ns#DerivativeWorks" />
      </cc:License>
    </rdf:RDF>
  </metadata>
  <path
     style="opacity:1;vector-effect:none;fill:#8f0000;fill-opacity:1;stroke:none;stroke-width:3.26753092;stroke-linecap:butt;stroke-linejoin:miter;stroke-miterlimit:4;stroke-dasharray:none;stroke-dashoffset:0;stroke-opacity:1;marker-start:none"
     d="M 240,4.8564425 A 235.14296,235.14296 0 0 0 7.0859415,209.54785 H 70.693361 c 19.062741,0 34.403289,15.15601 34.292969,34.21875 l -0.002,0.3711 c 14.18634,-1.66757 22.92413,-6.14183 29.24219,-11.93555 7.25865,-6.65589 12.0631,-15.87716 17.73828,-26.16797 5.67581,-10.29081 12.40479,-21.72091 24.5918,-30.08594 10.04939,-6.89731 23.66686,-11.25861 41.63281,-11.98047 l -0.006,-7.86523 c -0.01,-19.06354 15.37867,-34.49609 34.44141,-34.49609 H 390.4588 c 19.06274,0 34.47657,15.43335 34.47657,34.49609 v 33.91211 c 0,19.06274 -15.41383,35.43359 -34.47657,35.43359 H 252.625 c -19.06354,0 -34.43841,-16.37085 -34.44141,-35.43359 v -7.92969 c -14.88581,0.64672 -24.57323,4.13341 -31.38476,8.8086 -8.39621,5.76295 -13.52289,14.00645 -18.97071,23.88476 -5.44798,9.87911 -11.01697,21.3212 -21.34375,30.79102 -0.44983,0.41225 -0.87964,0.80067 -1.3457,1.20117 53.63403,7.24586 77.97939,27.16306 98.69531,45.2793 24.27809,21.23073 43.2393,39.74421 109.99805,39.96484 l 0.004,-8.03516 c 0.008,-19.06274 15.62281,-33.97851 34.68554,-33.97851 h 81.09571 a 235.14296,235.14296 0 0 0 5.5253,-50.00196 A 235.14296,235.14296 0 0 0 240,4.8564425 Z M 7.0859415,209.54785 a 235.14296,235.14296 0 0 0 -1.875,23.38867 235.14296,235.14296 0 0 1 1.875,-23.38867 z m -1.875,23.38867 a 235.14296,235.14296 0 0 0 -0.35352,7.0625 235.14296,235.14296 0 0 0 5.6738305,50.00391 h 60.162109 c 6.43637,0 11.83789,-5.61449 11.83789,-12.05078 v -33.91211 c 0,-6.43662 -5.4016,-11.10352 -11.83789,-11.10352 z m 5.3203105,57.06641 a 235.14296,235.14296 0 0 0 6.070309,22.45313 235.14296,235.14296 0 0 1 -6.070309,-22.45313 z m 6.070309,22.45313 A 235.14296,235.14296 0 0 0 240,475.14356 235.14296,235.14296 0 0 0 418.51953,392.90918 h -29.99805 c -19.06273,0 -34.67754,-15.95288 -34.68554,-35.01562 l -0.004,-7.77344 C 283.19055,349.55973 256.08122,326.83749 231.90625,305.69629 206.80477,283.74928 183.85339,263.24343 104.98437,262.11426 v 15.83789 c 0,19.06353 -15.228268,34.50391 -34.291009,34.50391 z M 252.62109,144.99317 c -6.43597,0 -11.98632,4.67308 -11.98632,11.10937 v 33.91211 c -1e-5,6.43669 5.54995,11.10937 11.98632,11.10937 h 137.83399 c 6.43605,0 11.08789,-4.673 11.08789,-11.10937 v -33.91211 c 0,-6.43645 -4.65152,-11.10937 -11.08789,-11.10937 z m 216.98047,145.06835 a 235.14296,235.14296 0 0 1 -6.04297,22.38868 235.14296,235.14296 0 0 0 6.04297,-22.38868 z m -81.08008,22.39258 c -6.43645,0 -11.29882,5.0891 -11.29882,11.52539 v 33.91407 c 0,6.43646 4.86245,10.69335 11.29882,10.69335 h 48.11524 a 235.14296,235.14296 0 0 0 26.92187,-56.13281 z m 48.11524,56.13281 a 235.14296,235.14296 0 0 1 -18.11719,24.32032 235.14296,235.14296 0 0 0 18.11719,-24.32032 z"
     id="path831-3"
     inkscape:connector-curvature="0" />
  <path
     inkscape:connector-curvature="0"
     style="opacity:1;vector-effect:none;fill:#ffffff;fill-opacity:1;stroke:none;stroke-width:3.26753092;stroke-linecap:butt;stroke-linejoin:miter;stroke-miterlimit:4;stroke-dasharray:none;stroke-dashoffset:0;stroke-opacity:1;marker-start:none"
     d="m 252.625,121.60645 c -19.06274,0 -34.451,15.43255 -34.44141,34.49609 l 0.006,7.86523 c -17.96595,0.72186 -31.58342,5.08316 -41.63281,11.98047 -12.18701,8.36503 -18.91599,19.79513 -24.5918,30.08594 -5.67518,10.29081 -10.47963,19.51208 -17.73828,26.16797 -6.31806,5.79372 -15.05585,10.26798 -29.24219,11.93555 l 0.002,-0.3711 C 105.09683,224.70386 89.756282,209.54785 70.693541,209.54785 H 7.0861215 a 235.14296,235.14296 0 0 0 -1.875,23.38867 H 70.693541 c 6.43629,0 11.83789,4.6669 11.83789,11.10352 v 33.91211 c 0,6.43629 -5.40152,12.05078 -11.83789,12.05078 h -60.16211 a 235.14296,235.14296 0 0 0 6.07031,22.45313 h 54.0918 c 19.062741,0 34.291009,-15.44038 34.291009,-34.50391 v -15.83789 c 78.86902,1.12917 101.8204,21.63502 126.92188,43.58203 24.17497,21.1412 51.2843,43.86344 121.92578,44.42383 l 0.004,7.77344 c 0.008,19.06274 15.62281,35.01562 34.68554,35.01562 h 29.99805 a 235.14296,235.14296 0 0 0 18.11719,-24.32227 h -48.11524 c -6.43637,0 -11.29882,-4.25689 -11.29882,-10.69335 v -33.91407 c 0,-6.43629 4.86237,-11.52539 11.29882,-11.52539 h 75.03711 a 235.14296,235.14296 0 0 0 6.0586,-22.45312 h -81.09571 c -19.06273,0 -34.67755,14.91577 -34.68554,33.97851 l -0.004,8.03516 c -66.75875,-0.22063 -85.71996,-18.73411 -109.99805,-39.96484 -20.71592,-18.11624 -45.06128,-38.03344 -98.69531,-45.2793 0.46606,-0.4005 0.89587,-0.78892 1.3457,-1.20117 10.32678,-9.46982 15.89577,-20.91191 21.34375,-30.79102 5.44782,-9.87831 10.5745,-18.12181 18.97071,-23.88476 6.81153,-4.67519 16.49895,-8.16188 31.38476,-8.8086 v 7.92969 c 0.003,19.06274 15.37787,35.43359 34.44141,35.43359 h 137.83398 c 19.06274,0 34.47657,-16.37085 34.47657,-35.43359 v -33.91211 c 0,-19.06274 -15.41383,-34.49609 -34.47657,-34.49609 z m -0.004,23.38672 h 137.83399 c 6.43637,0 11.08789,4.67292 11.08789,11.10937 v 33.91211 c 0,6.43637 -4.65184,11.10937 -11.08789,11.10937 h -137.8339 c -6.43637,0 -11.98632,-4.67268 -11.98632,-11.10937 v -33.91211 c 0,-6.43629 5.55035,-11.10937 11.98632,-11.10937 z"
     id="path831" />
</svg>
