<?xml version="1.0" encoding="UTF-8" standalone="no"?>
<!-- Generated by IcoMoon.io -->

<svg
   xmlns:dc="http://purl.org/dc/elements/1.1/"
   xmlns:cc="http://creativecommons.org/ns#"
   xmlns:rdf="http://www.w3.org/1999/02/22-rdf-syntax-ns#"
   xmlns:svg="http://www.w3.org/2000/svg"
   xmlns="http://www.w3.org/2000/svg"
   xmlns:sodipodi="http://sodipodi.sourceforge.net/DTD/sodipodi-0.dtd"
   xmlns:inkscape="http://www.inkscape.org/namespaces/inkscape"
   version="1.1"
   width="200"
   height="200"
   viewBox="0 0 20 20"
   id="svg3967"
   sodipodi:docname="nzbhydra.svg"
   inkscape:version="0.92.2 5c3e80d, 2017-08-06">
  <metadata
     id="metadata3973">
    <rdf:RDF>
      <cc:Work
         rdf:about="">
        <dc:format>image/svg+xml</dc:format>
        <dc:type
           rdf:resource="http://purl.org/dc/dcmitype/StillImage" />
        <dc:title>nzbhydra</dc:title>
      </cc:Work>
    </rdf:RDF>
  </metadata>
  <defs
     id="defs3971">
    <inkscape:path-effect
       effect="spiro"
       id="path-effect4374"
       is_visible="true" />
  </defs>
  <sodipodi:namedview
     pagecolor="#ffffff"
     bordercolor="#666666"
     borderopacity="1"
     objecttolerance="10"
     gridtolerance="10"
     guidetolerance="10"
     inkscape:pageopacity="0"
     inkscape:pageshadow="2"
     inkscape:window-width="1116"
     inkscape:window-height="822"
     id="namedview3969"
     showgrid="false"
     inkscape:pagecheckerboard="true"
     inkscape:zoom="4"
     inkscape:cx="247.98408"
     inkscape:cy="103.93925"
     inkscape:window-x="0"
     inkscape:window-y="0"
     inkscape:window-maximized="0"
     inkscape:current-layer="svg3967" />
  <title
     id="title3963">nzbhydra</title>
  <path
     style="fill:#1faa4f;fill-opacity:1;stroke:none;stroke-width:0.09210527;stroke-miterlimit:4;stroke-dasharray:none;stroke-dashoffset:0;stroke-opacity:0.96135266"
     d="M 9.9999998,0.27773119 C 4.6305307,0.27770677 0.27770977,4.6305277 0.27773419,9.9999968 c 0.002257,2.1439962 0.7131569,4.2271172 2.02207031,5.9251952 0.047332,-0.229902 0.3156401,-0.308772 0.4617187,-0.213476 -0.125317,-0.0078 -0.2321846,0.0857 -0.2029296,0.21582 0.2283656,0.07467 0.4850135,-0.0087 0.6753906,-0.142383 0.026196,-0.08994 0.038038,-0.183431 0.068164,-0.27207 0.3309775,0.139727 0.6915813,0.364166 1.0605469,0.220508 0.1357968,-0.03013 0.22795,-0.226607 0.094336,-0.316992 -0.184701,-0.06506 -0.326546,0.122684 -0.4378906,0.241015 0.1279371,-0.475508 0.6230629,-0.910756 1.134375,-0.730859 0.2362254,0.179462 0.4467019,0.434875 0.7615235,0.474609 0.118331,0.01965 0.3130444,-0.03405 0.283789,-0.189062 -0.058553,-0.17816 -0.2406837,-0.263407 -0.3865234,-0.358594 0.2873129,-0.136234 0.6318423,-0.08996 0.8986328,0.0707 C 6.5192587,14.76327 6.3193004,14.609195 6.0935545,14.497849 5.5464375,14.248087 5.1752483,13.720529 4.9708982,13.169919 4.7691679,12.634592 4.8117058,12.00671 5.1287107,11.524216 5.2867764,11.178394 5.3504065,10.726633 5.1242187,10.396091 4.9469405,10.133667 4.5160906,10.112637 4.3226561,10.363278 c -0.1493327,0.211335 0.1244297,0.425701 0.020508,0.648828 -0.510002,0.216576 -1.1497402,0.504365 -1.2003907,1.1375 -0.099118,-0.03099 -0.2009041,-0.05073 -0.3035156,-0.06602 -0.089076,-0.169418 -0.2929213,-0.33308 -0.2248047,-0.541797 0.1218239,-0.204787 0.3321571,-0.352471 0.4125,-0.584766 0.080343,-0.168545 -0.046241,-0.354996 0.029297,-0.524414 C 3.1453251,10.147046 3.4244539,9.9881688 3.5445311,9.7205046 3.6763983,9.465066 3.8253206,9.1772936 3.7537108,8.8812468 3.7043702,8.7127028 3.5388314,8.62982 3.3890624,8.5673796 c 0.2515074,-0.020089 0.5397352,0.085045 0.6519531,0.3251953 0.099119,0.1851375 0.094593,0.40398 0.058789,0.6052735 C 4.237348,9.2445939 4.4789035,9.0734305 4.7291015,8.9437468 4.9950187,8.8014013 5.2919582,8.6952028 5.5980468,8.7165984 5.2819154,8.8497763 4.9543086,8.9804961 4.720703,9.2433562 5.3372468,9.072628 6.0062038,9.3440873 6.3939452,9.8374968 6.1158018,9.7244062 5.8324332,9.5711676 5.5228515,9.598239 c 0.093005,0.099555 0.2555779,0.065934 0.371289,0.1296875 0.436209,0.1860106 0.6693838,0.6335345 0.8894532,1.0269535 -0.161121,-0.14803 -0.339814,-0.280651 -0.5402344,-0.369727 0.098245,0.271157 0.3164961,0.496853 0.3304687,0.797266 0.069426,0.425729 -0.092964,0.846573 -0.3505859,1.179297 0.061567,-0.255438 0.1000132,-0.516978 0.086914,-0.780274 -0.019649,0.0044 -0.059454,0.01228 -0.079102,0.01621 -0.1593757,0.341894 -0.2583691,0.741352 -0.1474609,1.1125 0.1056681,0.334035 0.3995745,0.569984 0.7130859,0.700977 0.6056275,0.258494 1.2705726,0.315098 1.9185547,0.384961 0.089083,-0.154983 0.1502056,-0.343459 0.083398,-0.518555 C 8.6912171,12.976261 8.4073671,12.794154 8.1558593,12.621677 7.5821045,12.179812 7.1367639,11.567492 6.9083983,10.878903 6.6730462,10.166735 6.6738892,9.3831219 6.8808593,8.6648406 7.0952523,8.064889 7.3676685,7.4285398 7.2222655,6.7796843 7.0960749,6.2164116 6.549107,5.8231278 5.9849608,5.798239 5.6570399,5.7388552 5.512481,6.1632284 5.1753905,6.1099577 4.8326237,5.7785436 4.5344331,5.3597519 4.065039,5.1986296 3.8576323,5.1143566 3.6305351,5.1253364 3.4130858,5.1554656 3.4475841,5.0017662 3.3208128,4.8191675 3.4513671,4.6947234 3.5937133,4.5480106 3.711349,4.2848356 3.9576171,4.3341765 4.2038854,4.4075331 4.4268338,4.5598973 4.6892577,4.5808562 4.9556116,4.6371833 5.1574853,4.3633602 5.4255858,4.4292937 5.7618031,4.4428295 6.0249605,4.7271283 6.368164,4.6865202 6.7467359,4.6625042 7.181358,4.5449367 7.3804687,4.1908171 c 0.027072,0.3951642 -0.277803,0.770361 -0.6681641,0.8310547 0.5331443,0.2078433 1.1082068,0.301203 1.6251953,0.5566406 0.1025541,0.037389 0.1931839,0.1181803 0.3,0.1369141 0.025043,0.00125 0.050156,0.00325 0.075195,0.00293 -0.026181,0.00346 -0.051031,0.00131 -0.075195,-0.00293 C 8.3258456,5.6999223 8.0136158,5.5762179 7.6947265,5.638864 7.7300955,5.7227 7.8353068,5.7234622 7.9042968,5.7658171 8.4479201,6.0352276 8.9130526,6.5204043 9.0597655,7.1199187 8.8872905,6.8203798 8.5916375,6.401691 8.1947265,6.5208952 8.4567142,6.688567 8.7046528,6.9198723 8.7828124,7.2316374 8.895467,7.633788 8.795528,8.0495922 8.7304687,8.4499968 8.6889874,8.131245 8.6995329,7.73382 8.4445311,7.5037077 8.5868778,8.1578034 8.6593219,8.9403248 8.165039,9.4712859 8.234902,9.1748038 8.2121822,8.8665734 8.1855468,8.5665984 8.0025921,9.0071736 7.8786289,9.4808185 7.8886718,9.9611296 c 0.014846,0.4833664 0.2112829,0.9487864 0.515625,1.3216794 0.4235463,0.518736 1.0109388,0.877386 1.6187502,1.141993 0.01266,-0.01615 0.03758,-0.04849 0.0498,-0.06465 C 9.6335726,11.898188 9.4640169,11.210049 9.6164061,10.593942 9.6893286,10.308378 9.8881327,10.075073 9.9636718,9.7908171 9.7051784,9.9283599 9.4522669,10.099501 9.2732421,10.333981 9.5954866,9.4881987 10.293773,8.7202156 11.223828,8.5765593 11.136935,8.5053885 11.049466,8.4189184 10.928516,8.4228484 10.509335,8.3639013 10.119002,8.5507554 9.7404296,8.6992156 10.017262,8.4402818 10.361733,8.2648777 10.728516,8.1718718 10.405834,7.939576 10.151796,7.6329568 9.8919921,7.3369109 9.9050913,7.675748 9.990297,8.0076824 10.113867,8.3220671 9.6837719,7.9500458 9.4330157,7.3805155 9.4570311,6.8111296 9.48061,6.4033027 9.5120691,5.9911629 9.6273437,5.5968718 9.3579332,5.7064698 9.1137867,5.8662968 8.8810546,6.0396452 9.1936929,5.4855418 9.6366087,4.9712448 10.226953,4.7066374 10.554874,4.5577412 10.915849,4.5156745 11.269531,4.4706999 10.919778,4.3584822 10.555273,4.2314312 10.182812,4.3056609 9.9592514,4.3541291 9.696798,4.3755052 9.5177733,4.5152312 c -0.00262,-0.01441 -0.00431,-0.029192 -0.00605,-0.043164 0.3829366,-0.3104555 0.8936687,-0.3994971 1.3744147,-0.3820312 0.437518,0.018775 0.8751,0.099184 1.285547,0.2533203 -0.0013,-0.4580413 -0.485971,-0.6839369 -0.802539,-0.9271485 0.494283,0.023142 0.846609,0.400066 1.169726,0.7292969 0.247579,0.3030321 0.643616,0.4126118 0.933985,0.6654297 -0.192561,-0.3322867 -0.32004,-0.7021383 -0.38379,-1.0802734 l -0.0029,-0.00137 c -0.03363,-0.2235625 -0.04543,-0.4884738 0.126172,-0.6626953 -0.08776,0.3554294 0.07292,0.7072834 0.226172,1.0199218 0.157629,0.2916793 0.326041,0.5946721 0.586718,0.8064454 0.26941,0.1475862 0.554134,0.3060498 0.726172,0.5710937 0.124445,0.1864476 0.06692,0.4441153 0.223242,0.6148437 0.202168,0.2654808 0.519482,0.391205 0.777539,0.5876954 0.227494,0.2344787 0.01846,0.576029 -0.03613,0.8423828 C 15.584626,7.5548265 15.461515,7.622901 15.356286,7.7150332 15.232673,7.4320898 15.022122,7.1876682 14.749218,7.0396454 14.330475,6.7929406 13.83712,6.75797 13.368163,6.6841767 13.254198,6.6789367 13.209563,6.5653476 13.170702,6.4771454 13.048878,6.2348069 13.249285,5.9196052 13.031835,5.7113251 12.624883,5.33057 11.998287,5.0895193 11.458593,5.3205048 c -0.372459,0.1650521 -0.472377,0.638791 -0.360156,0.9990234 0.14671,0.4698307 0.473361,0.8637156 0.833593,1.1894532 0.301723,0.097809 0.603781,0.2020633 0.903321,0.3103515 0.289059,0.056765 0.589445,0.031135 0.876757,0.1044922 -0.258494,-0.1746587 -0.521326,-0.3768306 -0.663671,-0.6615234 -0.07292,-0.1323037 -0.05287,-0.2873769 0.0057,-0.4201172 0.01441,0.4309692 0.448087,0.6500937 0.796093,0.79375 0.381192,0.1951807 0.841892,0.059549 1.213477,0.2839844 0.207844,0.1030488 0.25755,0.3745486 0.475,0.4640625 0.279017,0.1384166 0.597279,0.1143526 0.895508,0.1671875 0.318314,0.099992 0.267706,0.5100825 0.333203,0.7720703 C 16.668738,9.4144972 16.602054,9.532355 16.54398,9.6515595 16.051404,9.2083633 15.325552,9.2865322 14.751362,9.5087861 14.568408,9.5485181 14.347491,9.732854 14.185933,9.5582001 13.987256,9.4276391 13.990745,9.1630278 13.843159,8.9949189 13.672431,8.8495163 13.434539,8.8599738 13.225386,8.8320282 c -0.003,0.00829 -0.0096,0.025683 -0.01309,0.033984 0.330977,0.5043259 0.490217,1.1178335 0.457031,1.7195318 -0.06463,0.702126 -0.05136,1.415614 -0.218164,2.105078 -0.138854,0.60519 -0.403896,1.181051 -0.782031,1.674023 0.585541,-0.05763 1.248252,-0.08161 1.713281,-0.487695 0.345823,-0.372459 0.07685,-0.907279 -0.166797,-1.257031 0.02401,0.266354 0.07695,0.532741 0.182617,0.779883 -0.298666,-0.261988 -0.487306,-0.659453 -0.472461,-1.058985 0.02969,-0.240156 0.08937,-0.480665 0.206836,-0.69375 -0.176405,0.184703 -0.294567,0.412596 -0.444336,0.617383 0.180333,-0.534889 0.447507,-1.108567 0.986328,-1.362695 -0.282073,-0.01659 -0.515234,0.18246 -0.750586,0.309961 0.276833,-0.48686 0.836992,-0.81212 1.403321,-0.737891 -0.244521,-0.191688 -0.543212,-0.274735 -0.839258,-0.347656 0.496466,-0.0834 1.046167,0.104748 1.399414,0.463672 -0.05938,-0.2109 -0.08384,-0.460187 0.05371,-0.647071 0.106104,-0.1550088 0.294342,-0.2169651 0.470312,-0.2505859 -0.183392,0.101738 -0.352332,0.289443 -0.274609,0.5156249 0.09825,0.341895 0.329599,0.642328 0.612109,0.854102 0.07379,0.06812 0.140596,0.144611 0.189063,0.232813 0.09825,0.155009 0.0014,0.362317 0.122852,0.508593 0.101303,0.178152 0.296396,0.267368 0.419531,0.425 0.08689,0.173784 -0.07471,0.341383 -0.120117,0.504688 -0.09257,0.02619 -0.182858,0.05945 -0.265821,0.108789 -0.124881,-0.565456 -0.74361,-0.726691 -1.223047,-0.868164 -0.0882,-0.180335 0.08893,-0.384167 -0.04336,-0.549219 -0.195181,-0.213521 -0.589459,-0.142329 -0.711719,0.116602 -0.160249,0.31744 -0.04361,0.701645 0.131055,0.988086 0.22793,0.26286 0.349377,0.619661 0.297851,0.966796 -0.07205,0.505635 -0.38479,0.945149 -0.760742,1.276563 -0.206533,0.188195 -0.481641,0.266427 -0.70957,0.421875 0.295172,-0.09301 0.590428,-0.250685 0.90918,-0.205274 -0.110472,0.130994 -0.302234,0.246293 -0.2625,0.444532 0.195182,0.07378 0.319233,-0.116177 0.470312,-0.194336 0.218324,-0.062 0.400914,0.115259 0.596094,0.179883 0.444507,0.158502 0.881903,0.389575 1.363086,0.393945 0.158065,-0.0044 0.400038,-0.07951 0.375586,-0.279492 -0.103923,-0.193436 -0.391597,-0.264538 -0.580664,-0.15625 0.02314,0.07598 0.04403,0.18027 0.133984,0.202539 0.08776,-0.0034 0.117411,-0.09997 0.167188,-0.15586 0.09562,0.176404 -0.121762,0.28548 -0.271094,0.275 -0.245393,0.03406 -0.391295,-0.39847 -0.145899,-0.487109 0.293862,-0.139289 0.652492,-0.03585 0.895704,0.159766 0.09749,0.08217 0.140211,0.204835 0.138281,0.328125 1.204286,-1.656784 1.854546,-3.651586 1.858019,-5.6998052 C 19.72229,4.6305275 15.369469,0.27770656 9.9999998,0.27773119 Z M 5.2927732,4.8085906 c -0.1269001,-0.00115 -0.2554521,0.030116 -0.3667968,0.085352 h 3.9e-4 C 5.1246035,4.9664251 5.3548803,4.9563051 5.5216789,5.1021452 5.5727664,5.0466915 5.617297,4.9851058 5.6496086,4.916989 5.5450319,4.8431959 5.4196728,4.8097365 5.2927726,4.8085906 Z M 14.037109,5.444528 c -0.03275,0.079907 -0.05546,0.1632917 -0.07031,0.2484376 0.25893,0.044101 0.4022,0.2833653 0.6,0.4300781 C 14.520077,5.8331111 14.332236,5.5279274 14.0375,5.444528 Z m 0.5375,2.7794922 c -0.03538,-0.00128 -0.071,5e-4 -0.10664,0.00547 0.0035,0.083645 0.01501,0.1663887 0.03418,0.2478516 0.241465,-0.058077 0.460523,0.074766 0.692383,0.1140624 -0.137157,-0.2032597 -0.372273,-0.3583998 -0.619923,-0.367384 z m -2.644336,1.038086 C 11.591,9.4306513 11.262688,9.6835164 11.086719,10.028903 c -0.149332,0.290368 -0.05633,0.641874 0.122265,0.896875 0.237972,0.334908 0.578488,0.590731 0.764063,0.964063 0.272904,-0.439702 0.41965,-0.955772 0.41875,-1.473633 -0.01353,-0.4222365 -0.18862,-0.8349135 -0.461524,-1.1541018 z M 3.5296873,10.314841 C 3.3502256,10.441905 3.2846566,10.684155 3.3208982,10.893747 3.4165242,10.74616 3.476803,10.566383 3.635742,10.472067 3.602994,10.417937 3.5676762,10.365491 3.5296873,10.314841 Z m 12.9849607,0.945312 c -0.02838,0.04715 -0.05589,0.09436 -0.0834,0.142383 h 4e-4 c 0.145403,0.0786 0.225648,0.22581 0.341797,0.336719 -0.0044,-0.191251 -0.09767,-0.373433 -0.25879,-0.479102 z M 9.9470701,11.40195 c -0.00113,0.32746 0.046829,0.653616 0.1466799,0.96582 0.01878,0.0053 0.05719,0.01626 0.07598,0.02149 -0.03405,0.01266 -0.09079,0.01301 -0.08731,0.06191 0.207843,0.103921 0.419603,0.198605 0.62832,0.300781 -0.06983,-0.535399 -0.459414,-0.933286 -0.7636719,-1.35 z"
     id="path3975-9"
     inkscape:connector-curvature="0"
     sodipodi:nodetypes="cccccccccccccccccccccccccccccccccccccccccccccccccccccccccccccccccccccccccccccccccccccccccccccccccccccccccccccccccccccccccccccccccccccccccccccccccccccccccccccccccccccccccccccccccccccccccccccccccccccccccccccccccccccccccc" />
  <path
     style="fill:#333333;fill-opacity:1;stroke:none;stroke-width:0.09210527;stroke-miterlimit:4;stroke-dasharray:none;stroke-dashoffset:0;stroke-opacity:0.96135266"
     d="m 13.212307,3.066598 c -0.171601,0.1742215 -0.159802,0.4391328 -0.126172,0.6626953 l 0.0029,0.00137 c 0.06375,0.3781351 0.191229,0.7479867 0.38379,1.0802734 C 13.182486,4.5581158 12.786449,4.4485361 12.53887,4.145504 12.215753,3.8162731 11.863427,3.4393491 11.369144,3.4162071 11.685712,3.6594187 12.170383,3.8853143 12.171683,4.3433556 11.761236,4.1892192 11.323654,4.1088103 10.886136,4.0900353 10.40539,4.0725694 9.8946585,4.161611 9.5117218,4.4720665 c 0.00175,0.013972 0.00344,0.028754 0.00606,0.043164 0.1790197,-0.1397259 0.4414726,-0.161102 0.6650332,-0.2095702 0.372461,-0.07423 0.736966,0.052821 1.086719,0.165039 -0.353682,0.044975 -0.714657,0.087041 -1.042578,0.2359375 C 9.6366121,4.9712442 9.1936964,5.4855412 8.8810581,6.0396446 9.1137902,5.8662962 9.3579367,5.7064692 9.6273472,5.5968712 9.5120726,5.9911623 9.4806135,6.4033021 9.4570346,6.811129 9.4330192,7.3805149 9.6837752,7.9500452 10.11387,8.3220665 9.9903003,8.0076818 9.9050948,7.6757474 9.8919956,7.3369103 10.151799,7.6329562 10.405837,7.9395754 10.728519,8.1718712 10.361736,8.2648771 10.017265,8.4402813 9.7404331,8.699215 10.119005,8.5507548 10.509338,8.3639007 10.928519,8.4228478 c 0.12095,-0.00393 0.208419,0.08254 0.295312,0.1537109 C 10.293776,8.720215 9.5954901,9.4881977 9.2732456,10.333981 9.4522704,10.099501 9.7051819,9.9283593 9.9636753,9.7908165 9.8881363,10.075073 9.6893321,10.308378 9.6164096,10.593942 c -0.1523892,0.616107 0.017167,1.304246 0.4564454,1.766211 -0.01223,0.01616 -0.03715,0.0485 -0.04981,0.06465 C 9.4152392,12.160195 8.8278466,11.801544 8.4043003,11.282809 8.0999582,10.909915 7.9035213,10.444496 7.8886753,9.961129 7.8786324,9.4808179 8.0025956,9.007173 8.1855503,8.5665978 8.2121857,8.8665728 8.2349055,9.1748032 8.1650425,9.4712853 8.6593254,8.9403242 8.5868813,8.1578028 8.4445346,7.5037071 8.6995364,7.7338194 8.6889909,8.1312444 8.7304722,8.4499962 8.7955315,8.0495916 8.8954705,7.6337874 8.7828159,7.2316368 8.7046563,6.9198717 8.4567177,6.6885664 8.19473,6.5208946 8.591641,6.4016904 8.887294,6.8203792 9.059769,7.1199181 8.9130561,6.5204037 8.4479236,6.035227 7.9043003,5.7658165 7.8353103,5.7234616 7.730099,5.7226994 7.69473,5.6388634 8.0136193,5.5762173 8.3258491,5.6999217 8.6375034,5.7154259 8.5306873,5.6966921 8.4400575,5.6159006 8.3375034,5.5785118 7.8205149,5.3230742 7.2454524,5.2297145 6.7123081,5.0218712 7.1026692,4.9611775 7.4075444,4.5859807 7.3804722,4.1908165 7.1813615,4.5449361 6.7467394,4.6625036 6.3681675,4.6865196 6.024964,4.7271277 5.7618066,4.4428289 5.4255893,4.4292931 5.1574888,4.3633596 4.9556151,4.6371827 4.6892612,4.5808556 4.4268373,4.5598967 4.2038889,4.4075325 3.9576206,4.3341759 3.7113525,4.284835 3.5937168,4.54801 3.4513706,4.6947228 3.3208163,4.8191669 3.4475876,5.0017657 3.4130893,5.155465 3.6305386,5.1253358 3.8576358,5.114356 4.0650425,5.198629 4.5344366,5.3597513 4.8326272,5.778543 5.175394,6.1099571 5.5124845,6.1632278 5.6570434,5.7388546 5.9849643,5.7982384 6.5491105,5.8231272 7.0960784,6.216411 7.222269,6.7796837 7.367672,7.4285392 7.0952558,8.0648884 6.8808628,8.66484 c -0.2069701,0.7182814 -0.2078131,1.501895 0.027539,2.214063 0.2283656,0.688589 0.6737062,1.300909 1.247461,1.742774 0.2515078,0.172477 0.5353578,0.354584 0.6427734,0.655859 0.066807,0.175096 0.00568,0.363572 -0.083398,0.518555 C 8.0672557,13.726228 7.4023106,13.669624 6.7966831,13.41113 6.4831717,13.280137 6.1892653,13.044188 6.0835972,12.710153 c -0.1109081,-0.371148 -0.011915,-0.770606 0.1474609,-1.1125 0.019648,-0.0039 0.059452,-0.01181 0.079101,-0.01621 0.013099,0.263296 -0.025347,0.524836 -0.086914,0.780274 C 6.4808666,12.028993 6.643257,11.608149 6.573831,11.18242 6.559858,10.882007 6.3416073,10.656311 6.2433623,10.385154 6.4437827,10.474234 6.6224757,10.606851 6.7835967,10.754881 6.5635278,10.361461 6.330353,9.9139365 5.894144,9.7279259 5.7784329,9.6641721 5.6158603,9.6977932 5.522855,9.5982384 5.8324367,9.571167 6.1158053,9.7244056 6.3939487,9.8374962 6.0062073,9.3440867 5.3372503,9.0726274 4.7207065,9.2433556 4.9543121,8.9804955 5.2819189,8.8497757 5.5980503,8.7165978 5.2919617,8.6952022 4.9950222,8.8014007 4.729105,8.9437462 4.478907,9.0734299 4.2373515,9.2445933 4.0998081,9.4978478 4.1356119,9.2965543 4.1401377,9.0777118 4.041019,8.8925743 3.9288011,8.6524239 3.6405733,8.54729 3.3890659,8.567379 c 0.149769,0.06244 0.3153078,0.1453232 0.3646484,0.3138672 0.07161,0.2960468 -0.077313,0.5838192 -0.2091797,0.8392578 -0.1200772,0.2676642 -0.3992058,0.426542 -0.4882812,0.71211 -0.075538,0.169418 0.051046,0.355869 -0.029297,0.524414 -0.080343,0.232295 -0.2906761,0.379979 -0.4125,0.584766 -0.068117,0.208717 0.1357292,0.372379 0.2248047,0.541797 0.1026115,0.01528 0.2043972,0.03502 0.3035156,0.06602 0.05065,-0.633135 0.6903887,-0.920924 1.2003907,-1.1375 0.1039218,-0.223127 -0.1698406,-0.437493 -0.020508,-0.648828 0.1934344,-0.250641 0.6242844,-0.229611 0.8015626,0.03281 0.2261879,0.330542 0.1625577,0.782303 0.00449,1.128125 -0.3170049,0.482494 -0.3595428,1.110376 -0.1578125,1.645703 0.2043501,0.55061 0.5755393,1.078168 1.1226563,1.32793 0.2257459,0.111346 0.4257042,0.265421 0.6173828,0.426562 -0.2667905,-0.16066 -0.6113199,-0.206937 -0.8986328,-0.0707 0.1458397,0.09519 0.3279704,0.180434 0.3865234,0.358594 0.029255,0.155017 -0.165458,0.208712 -0.283789,0.189062 -0.3148215,-0.03973 -0.525298,-0.295149 -0.7615234,-0.474611 -0.5113121,-0.179897 -1.0064379,0.255351 -1.134375,0.730859 0.1113446,-0.118331 0.2531896,-0.306075 0.4378906,-0.241015 0.1336141,0.09038 0.041461,0.286862 -0.094336,0.316992 -0.3689656,0.143658 -0.7295694,-0.08078 -1.0605469,-0.220508 -0.030126,0.08864 -0.041968,0.18213 -0.068164,0.27207 -0.1903771,0.133647 -0.447025,0.217053 -0.6753906,0.142383 -0.029255,-0.130123 0.077613,-0.22362 0.2029296,-0.21582 -0.158502,-0.110908 -0.386334,-0.06493 -0.440039,0.134179 -0.013077,0.02415 -0.019294,0.05146 -0.02168,0.0793 1.8385912,2.391835 4.6833615,3.79463 7.7001955,3.797071 3.114378,-0.0038 6.03842,-1.499431 7.864258,-4.022461 0.0019,-0.12329 -0.04079,-0.245953 -0.138281,-0.328125 -0.243212,-0.195612 -0.601842,-0.299055 -0.895704,-0.159766 -0.245396,0.08864 -0.09949,0.521169 0.145899,0.487109 0.149332,0.01048 0.366714,-0.0986 0.271094,-0.275 -0.04978,0.05589 -0.07943,0.15246 -0.167188,0.15586 -0.08995,-0.02227 -0.110844,-0.126559 -0.133984,-0.202539 0.189067,-0.108288 0.476741,-0.03719 0.580664,0.15625 0.02445,0.199982 -0.217521,0.275092 -0.375586,0.279492 -0.481183,-0.0044 -0.918579,-0.235443 -1.363086,-0.393945 -0.19518,-0.06462 -0.37777,-0.241883 -0.596094,-0.179883 -0.151079,0.07816 -0.27513,0.268116 -0.470312,0.194336 -0.03973,-0.198239 0.152028,-0.313539 0.2625,-0.444532 -0.318752,-0.04541 -0.614008,0.112264 -0.90918,0.205274 0.227929,-0.155448 0.503037,-0.23368 0.70957,-0.421875 0.375952,-0.331414 0.688693,-0.770928 0.760742,-1.276563 0.05152,-0.347135 -0.06992,-0.703936 -0.297851,-0.966796 -0.174663,-0.286441 -0.291304,-0.670646 -0.131055,-0.988086 0.12226,-0.258931 0.516538,-0.330123 0.711719,-0.116602 0.13229,0.165052 -0.04484,0.368884 0.04336,0.549219 0.479437,0.141473 1.098166,0.302708 1.223047,0.868164 0.08296,-0.04934 0.173251,-0.0826 0.265821,-0.108789 0.04541,-0.163305 0.207007,-0.330904 0.120117,-0.504688 -0.123135,-0.157632 -0.318228,-0.246848 -0.419531,-0.425 -0.121397,-0.146276 -0.0246,-0.353584 -0.122852,-0.508593 -0.04847,-0.0882 -0.115273,-0.164693 -0.189063,-0.232813 -0.28251,-0.211774 -0.513859,-0.512208 -0.612109,-0.854102 -0.07772,-0.2261828 0.09122,-0.4138873 0.274609,-0.5156253 -0.17597,0.033621 -0.364208,0.095577 -0.470312,0.2505859 -0.13755,0.1868844 -0.113091,0.4361714 -0.05371,0.6470714 -0.353247,-0.358924 -0.902948,-0.547072 -1.399414,-0.463672 0.296046,0.07292 0.594737,0.155968 0.839258,0.347656 -0.566329,-0.07423 -1.126488,0.251031 -1.403321,0.737891 0.235352,-0.127501 0.468513,-0.326551 0.750586,-0.309961 -0.538821,0.254128 -0.805995,0.827806 -0.986328,1.362695 0.149769,-0.204787 0.267931,-0.43268 0.444336,-0.617383 -0.117461,0.213085 -0.177146,0.453594 -0.206836,0.69375 -0.01484,0.399532 0.173795,0.796997 0.472461,1.058985 -0.105667,-0.247148 -0.158607,-0.513535 -0.182617,-0.779889 0.243649,0.349752 0.51262,0.884572 0.166797,1.257031 -0.465029,0.406083 -1.12774,0.430065 -1.713281,0.487695 0.378135,-0.492972 0.643177,-1.068833 0.782031,-1.674023 0.166801,-0.689464 0.153534,-1.402952 0.218164,-2.105078 0.03319,-0.6016986 -0.126054,-1.2152063 -0.457031,-1.7195322 0.0035,-0.0083 0.01009,-0.025694 0.01309,-0.033984 0.209153,0.027946 0.447045,0.017488 0.617773,0.1628907 0.147586,0.1681089 0.144098,0.4327202 0.342774,0.5632812 0.161559,0.1746539 0.382475,-0.00968 0.565429,-0.049414 0.57419,-0.2222539 1.300042,-0.3004228 1.792578,0.1427734 C 16.602022,9.5323546 16.66871,9.4144968 16.76739,9.3232388 16.70189,9.061251 16.7525,8.6511605 16.434187,8.5511685 16.135958,8.4983335 15.817696,8.5223975 15.538679,8.383981 15.321229,8.294467 15.271523,8.0229673 15.063679,7.9199185 14.692094,7.6954827 14.231394,7.8311145 13.850202,7.6359341 13.502196,7.4922778 13.068519,7.2731533 13.054109,6.8421841 c -0.05853,0.1327403 -0.07858,0.2878135 -0.0057,0.4201172 0.142345,0.2846928 0.405177,0.4868647 0.663671,0.6615234 C 13.424804,7.8504676 13.124418,7.8760971 12.835359,7.8193321 12.535819,7.7110439 12.233761,7.6067896 11.932038,7.5089806 11.571806,7.183243 11.245156,6.7893581 11.098445,6.3195274 10.986224,5.959295 11.086145,5.4855561 11.458601,5.320504 c 0.539694,-0.2309855 1.16629,0.010065 1.573242,0.3908203 0.21745,0.2082801 0.01704,0.5234818 0.138867,0.7658203 0.03886,0.088202 0.0835,0.2017917 0.197461,0.2070313 0.468957,0.073793 0.962312,0.1087639 1.381055,0.3554687 0.272904,0.1480228 0.483455,0.3924444 0.607031,0.6753907 0.105229,-0.092132 0.22834,-0.1602067 0.359766,-0.2060547 0.05459,-0.2663538 0.263626,-0.6079041 0.03613,-0.8423828 C 15.494098,6.4701074 15.176784,6.3443831 14.974616,6.0789024 14.81829,5.908174 14.875819,5.6505063 14.751374,5.4640587 14.579336,5.1990148 14.294612,5.0405513 14.025202,4.892965 13.764525,4.6811918 13.596113,4.3781989 13.438484,4.0865196 13.285232,3.7738812 13.124552,3.4220272 13.212312,3.0665978 Z M 8.637502,5.7154261 c 0.024164,0.00424 0.049015,0.00639 0.075195,0.00293 -0.02504,3.2e-4 -0.050152,-0.00168 -0.075195,-0.00293 z M 5.2927754,4.8085902 c 0.1269002,0.00115 0.2522593,0.034605 0.356836,0.1083984 C 5.6172998,4.9851054 5.5727692,5.0466911 5.5216817,5.1021448 5.3548831,4.9563047 5.1246063,4.9664247 4.9263692,4.8939417 h -3.9e-4 C 5.0373239,4.8387058 5.1658759,4.8074439 5.292776,4.8085902 Z m 8.7443356,0.6359374 h 4e-4 c 0.294736,0.083399 0.482577,0.3885831 0.529297,0.6785157 -0.1978,-0.1467128 -0.34107,-0.3859772 -0.6,-0.4300781 0.01485,-0.085146 0.03756,-0.1685305 0.07031,-0.2484376 z m 0.5375,2.7794922 c 0.24765,0.00898 0.482766,0.164124 0.619922,0.3673828 C 14.962673,8.5521066 14.743615,8.4192631 14.50215,8.4773402 14.48299,8.3958772 14.4715,8.3131338 14.46797,8.2294886 c 0.03564,-0.00497 0.07126,-0.00675 0.10664,-0.00547 z m -2.644336,1.038086 c 0.272904,0.3191883 0.447994,0.7318654 0.461524,1.1541022 9e-4,0.517861 -0.145846,1.033931 -0.41875,1.473633 -0.185575,-0.373332 -0.526091,-0.629155 -0.764063,-0.964063 -0.178592,-0.255001 -0.271597,-0.606507 -0.122265,-0.896875 0.175969,-0.3453872 0.504281,-0.5982521 0.843554,-0.7667972 z M 3.5296895,10.314841 c 0.037989,0.05065 0.073307,0.103096 0.1060547,0.157226 -0.158939,0.09432 -0.2192178,0.274093 -0.3148438,0.42168 -0.036242,-0.209592 0.029327,-0.451842 0.2087891,-0.578906 z M 16.51465,11.260153 c 0.161122,0.105669 0.254389,0.287851 0.25879,0.479102 -0.116149,-0.110909 -0.196394,-0.258119 -0.341797,-0.336719 h -4e-4 c 0.02751,-0.04803 0.05502,-0.09523 0.0834,-0.142383 z M 9.9470723,11.40195 c 0.3042577,0.416714 0.6938457,0.814601 0.7636717,1.35 -0.208717,-0.102176 -0.420477,-0.19686 -0.62832,-0.300781 -0.0035,-0.0489 0.05326,-0.04925 0.08731,-0.06191 -0.01879,-0.0052 -0.0572,-0.01619 -0.07598,-0.02149 -0.099851,-0.312204 -0.1478111,-0.63836 -0.1466797,-0.96582 z"
     id="path3975"
     inkscape:connector-curvature="0"
     sodipodi:nodetypes="ccccccccccccccccccccccccccccccccccccccccccccccccccccccccccccccccccccccccccccccccccccccccccccccccccccccccccccccccccccccccccccccccccccccccccccccccccccccccccccccccccccccccccccccccccccccccccccccccccccccccccccccccccccccccccccc" />
</svg>
