<!-- Generated by IcoMoon.io -->
<svg version="1.1" xmlns="http://www.w3.org/2000/svg" width="450" height="320" viewBox="0 0 45 32">
<title>nzbhydra</title>
<path fill="#1faa4f" d="M29.262 2.518c-0.077-0.512-0.104-1.119 0.289-1.518-0.201 0.814 0.167 1.62 0.518 2.336 0.361 0.668 0.747 1.362 1.344 1.847 0.617 0.338 1.269 0.701 1.663 1.308 0.285 0.427 0.153 1.017 0.511 1.408 0.463 0.608 1.19 0.896 1.781 1.346 0.521 0.537 0.042 1.319-0.083 1.929-0.301 0.105-0.583 0.261-0.824 0.472-0.283-0.648-0.765-1.208-1.39-1.547-0.959-0.565-2.089-0.645-3.163-0.814-0.261-0.012-0.363-0.272-0.452-0.474-0.279-0.555 0.18-1.277-0.318-1.754-0.932-0.872-2.367-1.424-3.603-0.895-0.853 0.378-1.082 1.463-0.825 2.288 0.336 1.076 1.084 1.978 1.909 2.724 0.691 0.224 1.383 0.463 2.069 0.711 0.662 0.13 1.35 0.071 2.008 0.239-0.592-0.4-1.194-0.863-1.52-1.515-0.167-0.303-0.121-0.658 0.013-0.962 0.033 0.987 1.026 1.489 1.823 1.818 0.873 0.447 1.928 0.136 2.779 0.65 0.476 0.236 0.59 0.858 1.088 1.063 0.639 0.317 1.368 0.262 2.051 0.383 0.729 0.229 0.613 1.168 0.763 1.768-0.226 0.209-0.379 0.479-0.512 0.752-1.128-1.015-2.79-0.836-4.105-0.327-0.419 0.091-0.925 0.513-1.295 0.113-0.455-0.299-0.447-0.905-0.785-1.29-0.391-0.333-0.936-0.309-1.415-0.373-0.007 0.019-0.022 0.059-0.030 0.078 0.758 1.155 1.123 2.56 1.047 3.938-0.148 1.608-0.118 3.242-0.5 4.821-0.318 1.386-0.925 2.705-1.791 3.834 1.341-0.132 2.859-0.187 3.924-1.117 0.792-0.853 0.176-2.078-0.382-2.879 0.055 0.61 0.176 1.22 0.418 1.786-0.684-0.6-1.116-1.51-1.082-2.425 0.068-0.55 0.205-1.101 0.474-1.589-0.404 0.423-0.675 0.945-1.018 1.414 0.413-1.225 1.025-2.539 2.259-3.121-0.646-0.038-1.18 0.418-1.719 0.71 0.634-1.115 1.917-1.86 3.214-1.69-0.56-0.439-1.244-0.629-1.922-0.796 1.137-0.191 2.396 0.24 3.205 1.062-0.136-0.483-0.192-1.054 0.123-1.482 0.243-0.355 0.674-0.497 1.077-0.574-0.42 0.233-0.807 0.663-0.629 1.181 0.225 0.783 0.755 1.471 1.402 1.956 0.169 0.156 0.322 0.331 0.433 0.533 0.225 0.355 0.003 0.83 0.281 1.165 0.232 0.408 0.679 0.612 0.961 0.973 0.199 0.398-0.171 0.782-0.275 1.156-0.212 0.060-0.419 0.136-0.609 0.249-0.286-1.295-1.703-1.664-2.801-1.988-0.202-0.413 0.204-0.88-0.099-1.258-0.447-0.489-1.35-0.326-1.63 0.267-0.367 0.727-0.1 1.607 0.3 2.263 0.522 0.602 0.8 1.419 0.682 2.214-0.165 1.158-0.881 2.165-1.742 2.924-0.473 0.431-1.103 0.61-1.625 0.966 0.676-0.213 1.352-0.574 2.082-0.47-0.253 0.3-0.692 0.564-0.601 1.018 0.447 0.169 0.731-0.266 1.077-0.445 0.5-0.142 0.918 0.264 1.365 0.412 1.018 0.363 2.020 0.892 3.122 0.902 0.362-0.010 0.916-0.182 0.86-0.64-0.238-0.443-0.897-0.606-1.33-0.358 0.053 0.174 0.101 0.413 0.307 0.464 0.201-0.008 0.269-0.229 0.383-0.357 0.219 0.404-0.279 0.654-0.621 0.63-0.562 0.078-0.896-0.913-0.334-1.116 0.673-0.319 1.494-0.082 2.051 0.366 0.63 0.531 0.274 1.803-0.608 1.762-11.431 0-22.863 0.005-34.294 0.003-0.362 0.051-0.527-0.402-0.377-0.679 0.123-0.456 0.645-0.561 1.008-0.307-0.287-0.018-0.532 0.196-0.465 0.494 0.523 0.171 1.111-0.020 1.547-0.326 0.060-0.206 0.087-0.42 0.156-0.623 0.758 0.32 1.584 0.834 2.429 0.505 0.311-0.069 0.522-0.519 0.216-0.726-0.423-0.149-0.748 0.281-1.003 0.552 0.293-1.089 1.427-2.086 2.598-1.674 0.541 0.411 1.023 0.996 1.744 1.087 0.271 0.045 0.717-0.078 0.65-0.433-0.134-0.408-0.551-0.603-0.885-0.821 0.658-0.312 1.447-0.206 2.058 0.162-0.439-0.369-0.897-0.722-1.414-0.977-1.253-0.572-2.103-1.78-2.571-3.041-0.462-1.226-0.365-2.664 0.361-3.769 0.362-0.792 0.508-1.827-0.010-2.584-0.406-0.601-1.393-0.649-1.836-0.075-0.342 0.484 0.285 0.975 0.047 1.486-1.168 0.496-2.633 1.155-2.749 2.605-0.227-0.071-0.46-0.116-0.695-0.151-0.204-0.388-0.671-0.763-0.515-1.241 0.279-0.469 0.761-0.807 0.945-1.339 0.184-0.386-0.106-0.813 0.067-1.201 0.204-0.654 0.843-1.018 1.118-1.631 0.302-0.585 0.643-1.244 0.479-1.922-0.113-0.386-0.492-0.576-0.835-0.719 0.576-0.046 1.236 0.195 1.493 0.745 0.227 0.424 0.217 0.925 0.135 1.386 0.315-0.58 0.868-0.972 1.441-1.269 0.609-0.326 1.289-0.569 1.99-0.52-0.724 0.305-1.474 0.604-2.009 1.206 1.412-0.391 2.944 0.231 3.832 1.361-0.637-0.259-1.286-0.61-1.995-0.548 0.213 0.228 0.585 0.151 0.85 0.297 0.999 0.426 1.533 1.451 2.037 2.352-0.369-0.339-0.778-0.643-1.237-0.847 0.225 0.621 0.725 1.138 0.757 1.826 0.159 0.975-0.213 1.939-0.803 2.701 0.141-0.585 0.229-1.184 0.199-1.787-0.045 0.010-0.136 0.028-0.181 0.037-0.365 0.783-0.592 1.698-0.338 2.548 0.242 0.765 0.915 1.305 1.633 1.605 1.387 0.592 2.91 0.722 4.394 0.882 0.204-0.355 0.344-0.787 0.191-1.188-0.246-0.69-0.896-1.107-1.472-1.502-1.314-1.012-2.334-2.414-2.857-3.991-0.539-1.631-0.537-3.426-0.063-5.071 0.491-1.374 1.115-2.831 0.782-4.317-0.289-1.29-1.542-2.191-2.834-2.248-0.751-0.136-1.082 0.836-1.854 0.714-0.785-0.759-1.468-1.718-2.543-2.087-0.475-0.193-0.995-0.168-1.493-0.099 0.079-0.352-0.211-0.77 0.088-1.055 0.326-0.336 0.595-0.939 1.159-0.826 0.564 0.168 1.075 0.517 1.676 0.565 0.61 0.129 1.072-0.498 1.686-0.347 0.77 0.031 1.373 0.682 2.159 0.589 0.867-0.055 1.862-0.324 2.318-1.135 0.062 0.905-0.636 1.764-1.53 1.903 1.221 0.476 2.538 0.69 3.722 1.275 0.288 0.105 0.534 0.363 0.859 0.32-0.771 0.010-1.542-0.337-2.331-0.182 0.081 0.192 0.322 0.194 0.48 0.291 1.245 0.617 2.31 1.728 2.646 3.101-0.395-0.686-1.072-1.645-1.981-1.372 0.6 0.384 1.168 0.914 1.347 1.628 0.258 0.921 0.029 1.873-0.12 2.79-0.095-0.73-0.071-1.64-0.655-2.167 0.326 1.498 0.492 3.29-0.64 4.506 0.16-0.679 0.108-1.385 0.047-2.072-0.419 1.009-0.703 2.094-0.68 3.194 0.034 1.107 0.484 2.173 1.181 3.027 0.97 1.188 2.315 2.009 3.707 2.615 0.029-0.037 0.086-0.111 0.114-0.148-1.006-1.058-1.394-2.634-1.045-4.045 0.167-0.654 0.622-1.188 0.795-1.839-0.592 0.315-1.171 0.707-1.581 1.244 0.738-1.937 2.337-3.696 4.467-4.025-0.199-0.163-0.399-0.361-0.676-0.352-0.96-0.135-1.854 0.293-2.721 0.633 0.634-0.593 1.423-0.995 2.263-1.208-0.739-0.532-1.321-1.234-1.916-1.912 0.030 0.776 0.225 1.536 0.508 2.256-0.985-0.852-1.559-2.156-1.504-3.46 0.054-0.934 0.126-1.878 0.39-2.781-0.617 0.251-1.176 0.617-1.709 1.014 0.716-1.269 1.73-2.447 3.082-3.053 0.751-0.341 1.578-0.437 2.388-0.54-0.801-0.257-1.636-0.548-2.489-0.378-0.512 0.111-1.113 0.16-1.523 0.48-0.006-0.033-0.010-0.067-0.014-0.099 0.877-0.711 2.047-0.915 3.148-0.875 1.002 0.043 2.004 0.227 2.944 0.58-0.003-1.049-1.113-1.566-1.838-2.123 1.132 0.053 1.939 0.916 2.679 1.67 0.567 0.694 1.474 0.945 2.139 1.524-0.441-0.761-0.733-1.608-0.879-2.474zM10.575 5.185c0.454 0.166 0.981 0.143 1.363 0.477 0.117-0.127 0.219-0.268 0.293-0.424-0.479-0.338-1.147-0.306-1.657-0.053zM31.44 6.446c-0.075 0.183-0.127 0.374-0.161 0.569 0.593 0.101 0.921 0.649 1.374 0.985-0.107-0.664-0.537-1.363-1.212-1.554zM32.427 12.823c0.008 0.192 0.034 0.382 0.078 0.569 0.553-0.133 1.055 0.171 1.586 0.261-0.359-0.532-1.011-0.92-1.664-0.829zM24.683 16.945c-0.342 0.665-0.129 1.47 0.28 2.054 0.545 0.767 1.325 1.353 1.75 2.208 0.625-1.007 0.961-2.189 0.959-3.375-0.031-0.967-0.432-1.912-1.057-2.643-0.777 0.386-1.529 0.965-1.932 1.756zM6.898 18.926c0.219-0.338 0.357-0.75 0.721-0.966-0.075-0.124-0.156-0.244-0.243-0.36-0.411 0.291-0.561 0.846-0.478 1.326zM36.924 20.091c0.333 0.18 0.517 0.517 0.783 0.771-0.010-0.438-0.224-0.855-0.593-1.097-0.065 0.108-0.128 0.216-0.191 0.326zM22.073 20.087c-0.003 0.751 0.107 1.499 0.336 2.215 0.043 0.012 0.131 0.037 0.174 0.049-0.078 0.029-0.208 0.030-0.2 0.142 0.476 0.238 0.961 0.455 1.439 0.689-0.16-1.227-1.053-2.139-1.75-3.094z"></path>
</svg>
