<?xml version="1.0" encoding="UTF-8" standalone="no"?>
<!-- Created with Inkscape (http://www.inkscape.org/) -->

<svg
   xmlns:dc="http://purl.org/dc/elements/1.1/"
   xmlns:cc="http://creativecommons.org/ns#"
   xmlns:rdf="http://www.w3.org/1999/02/22-rdf-syntax-ns#"
   xmlns:svg="http://www.w3.org/2000/svg"
   xmlns="http://www.w3.org/2000/svg"
   xmlns:sodipodi="http://sodipodi.sourceforge.net/DTD/sodipodi-0.dtd"
   xmlns:inkscape="http://www.inkscape.org/namespaces/inkscape"
   width="269.18033"
   height="261.47784"
   id="svg2"
   version="1.1"
   inkscape:version="0.92.2 (unknown)"
   sodipodi:docname="Todoist.svg">
  <defs
     id="defs4" />
  <sodipodi:namedview
     id="base"
     pagecolor="#ffffff"
     bordercolor="#666666"
     borderopacity="1.0"
     inkscape:pageopacity="0.0"
     inkscape:pageshadow="2"
     inkscape:zoom="0.39878337"
     inkscape:cx="154.80562"
     inkscape:cy="-140.87835"
     inkscape:document-units="px"
     inkscape:current-layer="layer1"
     showgrid="false"
     fit-margin-left="0.5"
     fit-margin-bottom="0.5"
     fit-margin-top="0.5"
     fit-margin-right="0.5"
     inkscape:window-width="2505"
     inkscape:window-height="1413"
     inkscape:window-x="55"
     inkscape:window-y="27"
     inkscape:window-maximized="1" />
  <metadata
     id="metadata7">
    <rdf:RDF>
      <cc:Work
         rdf:about="">
        <dc:format>image/svg+xml</dc:format>
        <dc:type
           rdf:resource="http://purl.org/dc/dcmitype/StillImage" />
        <dc:title></dc:title>
      </cc:Work>
    </rdf:RDF>
  </metadata>
  <g
     inkscape:label="Layer 1"
     inkscape:groupmode="layer"
     id="layer1"
     transform="translate(-343.34936,-272.11077)">
    <path
       style="fill:#e44332"
       d="M 578.52956,272.62132 H 377.42332 c -18.45408,0 -33.53178,14.63454 -33.53178,32.53996 v 41.97275 l 0.0739,-0.0528 45.70789,25.79774 c 3.4608,1.94142 7.75514,1.92032 11.21594,0 2.90159,-1.58269 89.61151,-50.03389 90.90931,-50.75137 3.12316,-1.7515 6.489,-1.16063 8.35656,-0.10551 1.83592,1.05512 6.77389,3.77733 9.39059,5.2123 2.58505,1.44552 2.46898,5.44443 0.14772,6.75278 L 401.1636,394.65668 c -3.86174,2.163 -7.70239,2.21576 -11.71185,0.0211 -6.72113,-3.69292 -34.42863,-19.37203 -45.58127,-25.68166 v 22.02039 l 0.0844,-0.0422 45.70788,25.77663 c 3.4608,1.95197 7.75515,1.93087 11.21595,0 2.90159,-1.58269 89.61151,-50.03389 90.90931,-50.75137 3.12316,-1.74095 6.489,-1.16063 8.35656,-0.10551 1.83591,1.05512 6.77389,3.77733 9.39059,5.22285 2.58505,1.43497 2.46898,5.43388 0.14771,6.75278 L 401.15304,438.5392 c -3.86174,2.163 -7.70239,2.21576 -11.71185,0.0211 -6.72113,-3.69293 -34.42863,-19.37204 -45.58127,-25.67112 v 22.02039 l 0.0844,-0.0528 c 0,0 42.98567,24.2678 45.70788,25.78718 3.4608,1.94142 7.75515,1.92032 11.21595,0 2.90158,-1.58269 89.61151,-50.03388 90.90931,-50.75137 3.12316,-1.7515 6.489,-1.16063 8.35656,-0.10551 1.83591,1.05512 6.77388,3.77734 9.39059,5.2123 2.58505,1.43497 2.46898,5.43388 0.14771,6.75278 l -108.52984,60.66951 c -3.86175,2.163 -7.70239,2.21576 -11.71185,0.0211 -6.72113,-3.69293 -34.42863,-19.36149 -45.58127,-25.67112 V 500.517 c 0,17.91597 15.08824,32.57161 33.52122,32.57161 h 201.12735 c 18.43298,0 33.53177,-14.66619 33.53177,-32.57161 V 305.17183 c 0,-17.90542 -15.08824,-32.56106 -33.53177,-32.56106"
       id="path30"
       inkscape:connector-curvature="0" />
  </g>
</svg>
