<?xml version="1.0" encoding="UTF-8" standalone="no"?>
<!-- Created with Inkscape (http://www.inkscape.org/) -->

<svg
   xmlns:dc="http://purl.org/dc/elements/1.1/"
   xmlns:cc="http://creativecommons.org/ns#"
   xmlns:rdf="http://www.w3.org/1999/02/22-rdf-syntax-ns#"
   xmlns:svg="http://www.w3.org/2000/svg"
   xmlns="http://www.w3.org/2000/svg"
   xmlns:sodipodi="http://sodipodi.sourceforge.net/DTD/sodipodi-0.dtd"
   xmlns:inkscape="http://www.inkscape.org/namespaces/inkscape"
   width="49.514877mm"
   height="49.514877mm"
   viewBox="0 0 49.514877 49.514877"
   version="1.1"
   id="svg8"
   inkscape:version="0.92.2 (unknown)"
   sodipodi:docname="transmission.svg">
  <defs
     id="defs2" />
  <sodipodi:namedview
     id="base"
     pagecolor="#ffffff"
     bordercolor="#666666"
     borderopacity="1.0"
     inkscape:pageopacity="0.0"
     inkscape:pageshadow="2"
     inkscape:zoom="0.49497475"
     inkscape:cx="264.34042"
     inkscape:cy="678.36747"
     inkscape:document-units="mm"
     inkscape:current-layer="layer1"
     showgrid="false"
     inkscape:window-width="2505"
     inkscape:window-height="1413"
     inkscape:window-x="55"
     inkscape:window-y="27"
     inkscape:window-maximized="1"
     fit-margin-top="0"
     fit-margin-left="0"
     fit-margin-right="0"
     fit-margin-bottom="0" />
  <metadata
     id="metadata5">
    <rdf:RDF>
      <cc:Work
         rdf:about="">
        <dc:format>image/svg+xml</dc:format>
        <dc:type
           rdf:resource="http://purl.org/dc/dcmitype/StillImage" />
        <dc:title></dc:title>
      </cc:Work>
    </rdf:RDF>
  </metadata>
  <g
     inkscape:label="Layer 1"
     inkscape:groupmode="layer"
     id="layer1"
     transform="translate(-80.242561,-123.74256)">
    <circle
       style="opacity:1;vector-effect:none;fill:#b50701;fill-opacity:1;stroke:none;stroke-width:0.96499997;stroke-linecap:butt;stroke-linejoin:miter;stroke-miterlimit:4;stroke-dasharray:none;stroke-dashoffset:0;stroke-opacity:1;marker-start:none"
       id="path1367"
       cx="105"
       cy="148.5"
       r="24.757439" />
    <g
       id="g1365"
       transform="matrix(1.2394675,0,0,1.2394675,-22.826755,-38.257562)"
       style="fill:#ffffff;fill-opacity:1">
      <path
         inkscape:connector-curvature="0"
         id="path1208"
         d="m 112.31516,161.75009 c 0.15075,-0.0448 0.371,-0.1516 0.48943,-0.23739 0.2387,-0.17291 0.53457,-0.67442 0.5973,-1.01243 l 0.0392,-0.21143 -0.26678,0.15681 -0.26678,0.1568 -9.50452,0.0163 c -5.227487,0.009 -9.632554,0.001 -9.789045,-0.0173 -0.16686,-0.0197 -0.367173,-0.0897 -0.484362,-0.16923 -0.109906,-0.0746 -0.213633,-0.12181 -0.230504,-0.10493 -0.05253,0.0525 0.142685,0.59298 0.308823,0.85495 0.178398,0.2813 0.457419,0.47585 0.824432,0.57484 0.191251,0.0516 2.294479,0.0679 9.128586,0.0707 7.71569,0.003 8.91604,-0.007 9.15419,-0.0777 z"
         style="fill:#ffffff;fill-opacity:1;stroke-width:0.05462366" />
      <path
         inkscape:connector-curvature="0"
         id="path1196"
         d="m 113.01681,160.08922 c 0.41936,-0.19415 0.62846,-0.52015 0.62782,-0.97881 -2.2e-4,-0.14075 -0.31783,-3.40908 -0.70584,-7.26296 -0.68869,-6.8403 -0.70887,-7.01283 -0.84776,-7.24984 -0.085,-0.14505 -0.23708,-0.29834 -0.37778,-0.38079 l -0.2355,-0.13802 h -3.09509 -3.09511 l 2.8e-4,0.75108 c 1.6e-4,0.41309 0.0163,1.02146 0.0359,1.35194 l 0.0356,0.60086 1.08807,0.9286 c 0.59843,0.51073 1.10872,0.95318 1.13398,0.98322 0.0304,0.0362 -0.31465,0.0493 -1.02332,0.0387 -0.5881,-0.009 -1.09044,0.005 -1.11632,0.0311 -0.045,0.045 0.0322,3.80131 0.0976,4.74968 l 0.031,0.44957 1.13834,0.0147 1.13834,0.0147 -2.0742,2.18494 c -1.1408,1.20173 -2.2046,2.3162 -2.364,2.47661 l -0.28981,0.29165 -2.11993,-2.23079 c -1.165987,-1.22694 -2.238187,-2.3537 -2.382697,-2.50392 l -0.26274,-0.27312 h 1.15911 1.159117 l 0.0337,-0.87397 c 0.0185,-0.48069 0.0527,-1.65543 0.0759,-2.61052 l 0.0422,-1.73655 -1.100187,0.0159 c -0.60511,0.009 -1.10017,0.0106 -1.10014,0.004 3e-5,-0.006 0.51625,-0.45591 1.14716,-0.99886 l 1.147087,-0.98719 v -0.59024 c 0,-0.32463 0.0161,-0.92597 0.0358,-1.3363 l 0.0358,-0.74606 h -3.103557 -3.103561 l -0.235498,0.13802 c -0.143107,0.0839 -0.292939,0.23602 -0.381911,0.38784 -0.144289,0.24621 -0.156579,0.35064 -0.846813,7.19522 -0.385219,3.81996 -0.700986,7.08512 -0.701705,7.25591 -7.15e-4,0.17079 0.02484,0.37972 0.05679,0.4643 0.0826,0.21861 0.31576,0.45139 0.570073,0.56913 0.210072,0.0973 0.591224,0.10116 9.886882,0.10116 9.29567,0 9.67682,-0.004 9.88689,-0.10116 z"
         style="fill:#ffffff;fill-opacity:1;stroke-width:0.05462366" />
      <path
         inkscape:connector-curvature="0"
         id="path1130"
         d="m 103.9802,153.41062 c 0.36585,-0.16846 0.68571,-0.48294 0.76693,-0.75402 0.0439,-0.14665 0.0299,-1.33592 -0.0537,-4.53857 -0.0623,-2.38691 -0.12626,-4.61638 -0.14217,-4.95436 l -0.0289,-0.61452 h 2.83209 2.83208 l 0.24074,-0.12697 c 0.25963,-0.13693 0.45604,-0.38199 0.53481,-0.66727 0.0306,-0.11073 0.0248,-0.5822 -0.0152,-1.23718 -0.0738,-1.20868 -0.12688,-1.37756 -0.52058,-1.65567 l -0.23198,-0.16388 -7.00434,-0.0145 -7.004327,-0.0145 -0.24227,0.1279 c -0.133242,0.0704 -0.312064,0.227 -0.397377,0.34811 -0.137306,0.19492 -0.160787,0.29077 -0.204519,0.83481 -0.02717,0.33804 -0.0557,0.89226 -0.06338,1.23162 -0.01376,0.60738 -0.01142,0.62064 0.149896,0.85013 0.09013,0.12822 0.272205,0.29032 0.40462,0.36023 l 0.24074,0.12709 h 2.81001 2.809997 l -0.035,0.96957 c -0.0192,0.53327 -0.0834,2.78284 -0.14265,4.99905 -0.10621,3.97409 -0.10624,4.03227 -0.003,4.23333 0.17354,0.33741 0.52496,0.61769 0.94643,0.75485 0.38031,0.12378 1.1498,0.0755 1.52088,-0.0953 z"
         style="fill:#ffffff;fill-opacity:1;stroke-width:0.05462366" />
    </g>
  </g>
</svg>
